{"glyphs":{"0":{"ha":859,"x_min":142,"x_max":717,"o":"m 258 725 l 258 58 l 600 58 l 600 725 l 258 725 m 271 842 l 587 842 q 683 808 650 842 q 717 713 717 775 l 717 71 q 683 -25 717 8 q 587 -58 650 -58 l 271 -58 q 175 -25 208 -58 q 142 71 142 8 l 142 713 q 175 808 142 775 q 271 842 208 842 z "},"1":{"ha":859,"x_min":142,"x_max":717,"o":"m 207 842 l 488 842 l 488 58 l 600 58 l 600 288 q 616 334 600 317 q 659 351 632 351 q 701 334 684 351 q 717 288 717 316 l 717 0 q 699 -42 717 -26 q 652 -58 680 -58 l 207 -58 q 160 -42 178 -58 q 142 0 142 -26 q 160 42 142 26 q 207 58 178 58 l 371 58 l 371 725 l 207 725 q 159 741 177 725 q 142 783 142 757 q 160 825 142 809 q 207 842 178 842 z "},"2":{"ha":859,"x_min":142,"x_max":717,"o":"m 207 842 l 600 842 q 683 808 648 842 q 717 725 717 774 l 717 450 q 683 368 717 401 q 600 334 648 334 l 258 334 l 258 58 l 652 58 q 699 42 681 58 q 717 0 717 26 q 699 -42 717 -26 q 652 -58 680 -58 l 142 -58 l 142 334 q 176 416 142 382 q 258 450 210 450 l 600 450 l 600 725 l 207 725 q 159 741 177 725 q 142 783 142 757 q 160 825 142 809 q 207 842 178 842 z "},"3":{"ha":859,"x_min":142,"x_max":717,"o":"m 207 842 l 600 842 q 682 807 648 842 q 717 725 717 773 l 717 509 q 706 450 717 478 q 673 393 695 421 q 706 333 695 363 q 717 273 717 303 l 717 58 q 683 -24 717 10 q 600 -58 648 -58 l 207 -58 q 160 -42 178 -58 q 142 0 142 -26 q 160 42 142 26 q 207 58 178 58 l 599 58 l 599 275 q 582 316 599 298 q 541 334 564 334 l 321 334 q 274 349 291 334 q 257 392 257 365 q 275 434 257 417 q 321 450 292 450 l 541 450 q 582 468 564 450 q 599 509 599 485 l 599 725 l 207 725 q 159 741 177 725 q 142 783 142 757 q 160 825 142 809 q 207 842 178 842 z "},"4":{"ha":859,"x_min":171,"x_max":689,"o":"m 288 777 l 288 351 l 514 351 l 514 679 q 530 727 514 709 q 572 745 546 745 q 614 726 597 745 q 631 679 631 708 l 631 351 q 672 333 656 349 q 689 293 689 317 q 673 254 689 270 q 631 235 657 238 l 631 7 q 614 -40 631 -22 q 572 -58 598 -58 q 530 -40 547 -58 q 514 7 514 -22 l 514 235 l 171 235 l 171 777 q 187 824 171 806 q 229 842 203 842 q 271 823 254 842 q 288 777 288 805 z "},"5":{"ha":859,"x_min":142,"x_max":717,"o":"m 257 842 l 652 842 q 699 825 681 842 q 717 783 717 809 q 699 742 717 758 q 652 725 680 725 l 374 725 l 374 450 l 600 450 q 682 416 648 450 q 717 334 717 381 l 717 58 q 683 -24 717 10 q 600 -58 648 -58 l 342 -58 q 309 -55 326 -58 q 275 -45 292 -51 l 183 -7 q 153 16 163 1 q 142 50 142 31 q 158 91 142 74 q 200 107 175 107 q 213 105 206 107 q 229 100 220 104 l 319 64 q 331 59 326 60 q 340 58 336 58 l 600 58 l 600 334 l 257 334 l 257 842 z "},"6":{"ha":859,"x_min":142,"x_max":717,"o":"m 258 235 l 258 58 l 600 58 l 600 235 l 258 235 m 200 842 l 252 842 q 299 825 281 842 q 317 783 317 809 q 301 744 317 760 q 258 725 285 728 l 258 351 l 587 351 q 683 318 650 351 q 717 222 717 285 l 717 71 q 683 -25 717 8 q 587 -58 650 -58 l 271 -58 q 175 -25 208 -58 q 142 71 142 8 l 142 777 q 158 824 142 806 q 200 842 174 842 z "},"7":{"ha":859,"x_min":142,"x_max":717,"o":"m 200 842 l 717 842 l 717 493 q 712 464 717 475 q 688 436 707 453 l 488 265 l 488 7 q 471 -40 488 -22 q 429 -58 455 -58 q 387 -40 404 -58 q 371 7 371 -22 l 371 288 q 376 317 371 306 q 400 345 380 328 l 600 514 l 600 725 l 258 725 q 237 689 252 702 q 200 676 222 676 q 158 694 174 676 q 142 741 142 712 l 142 777 q 158 824 142 806 q 200 842 174 842 z "},"8":{"ha":859,"x_min":142,"x_max":717,"o":"m 258 334 l 258 58 l 600 58 l 600 334 l 258 334 m 374 725 l 374 450 l 485 450 l 485 725 l 374 725 m 315 842 l 543 842 q 585 823 568 842 q 602 777 602 805 l 602 450 q 687 412 658 445 q 717 321 717 379 l 717 71 q 683 -25 717 8 q 587 -58 650 -58 l 271 -58 q 175 -25 208 -58 q 142 71 142 8 l 142 321 q 171 412 142 379 q 257 450 201 446 l 257 777 q 273 824 257 806 q 315 842 289 842 z "},"9":{"ha":859,"x_min":142,"x_max":717,"o":"m 258 725 l 258 549 l 600 549 l 600 725 l 258 725 m 271 842 l 587 842 q 683 808 650 842 q 717 711 717 774 l 717 5 q 701 -41 717 -24 q 659 -58 684 -58 l 607 -58 q 560 -42 578 -58 q 542 0 542 -26 q 557 39 542 23 q 600 59 573 55 l 600 431 l 271 431 q 175 465 209 431 q 142 561 142 498 l 142 711 q 175 808 142 774 q 271 842 209 842 z "},"_":{"ha":859,"x_min":82,"x_max":777,"o":"m 82 -245 l 82 979 l 777 979 l 777 -245 l 82 -245 m 160 -168 l 699 -168 l 699 901 l 160 901 l 160 -168 z "}," ":{"ha":429,"x_min":0,"x_max":0,"o":""},"!":{"ha":859,"x_min":343,"x_max":517,"o":"m 401 107 l 457 107 q 500 89 483 107 q 517 43 517 71 l 517 7 q 500 -40 517 -22 q 457 -58 483 -58 l 401 -58 q 359 -40 376 -58 q 343 7 343 -22 l 343 43 q 359 90 343 73 q 401 107 375 107 m 397 842 l 461 842 q 500 824 484 842 q 517 781 517 806 l 517 775 l 489 349 q 471 301 486 318 q 431 285 456 285 q 389 301 405 285 q 371 347 373 318 l 343 775 l 343 781 q 358 825 343 808 q 397 842 374 842 z "},"\"":{"ha":859,"x_min":142,"x_max":717,"o":"m 717 774 l 665 496 q 643 448 660 466 q 602 431 625 431 q 562 446 576 431 q 541 496 547 460 l 496 725 l 363 725 l 318 496 q 297 446 311 462 q 257 431 282 431 q 216 448 233 431 q 195 496 199 465 l 142 774 l 142 842 l 717 842 l 717 774 z "},"#":{"ha":859,"x_min":142,"x_max":717,"o":"m 374 529 l 374 401 l 485 401 l 485 529 l 374 529 m 652 646 q 699 629 681 646 q 717 587 717 613 q 699 546 717 562 q 652 529 680 529 l 602 529 l 602 401 l 652 401 q 699 385 681 401 q 717 343 717 369 q 698 300 717 317 q 652 283 680 283 l 602 283 l 602 153 q 585 106 602 123 q 543 89 569 89 q 501 106 517 89 q 485 153 485 124 l 485 283 l 374 283 l 374 153 q 357 106 374 123 q 315 89 341 89 q 273 106 290 89 q 257 153 257 124 l 257 283 l 207 283 q 160 300 178 283 q 142 343 142 317 q 160 385 142 368 q 207 401 178 401 l 257 401 l 257 529 l 207 529 q 159 545 177 529 q 142 587 142 562 q 160 629 142 613 q 207 646 178 646 l 257 646 l 257 777 q 273 824 257 806 q 315 842 289 842 q 357 823 340 842 q 374 777 374 805 l 374 646 l 485 646 l 485 777 q 501 824 485 806 q 543 842 517 842 q 585 823 568 842 q 602 777 602 805 l 602 646 l 652 646 z "},"$":{"ha":859,"x_min":142,"x_max":717,"o":"m 488 777 l 488 646 l 652 646 q 699 629 681 646 q 717 587 717 613 q 699 546 717 562 q 652 529 680 529 l 258 529 l 258 450 l 659 450 q 700 432 684 450 q 717 385 717 414 l 717 203 q 701 155 717 173 q 659 138 685 138 l 488 138 l 488 7 q 471 -40 488 -22 q 429 -58 455 -58 q 387 -40 404 -58 q 371 7 371 -22 l 371 138 l 207 138 q 159 154 177 138 q 142 196 142 170 q 160 238 142 221 q 207 254 178 254 l 600 254 l 600 334 l 200 334 q 158 352 174 334 q 142 399 142 370 l 142 581 q 158 628 142 610 q 200 646 174 646 l 371 646 l 371 777 q 387 824 371 806 q 429 842 403 842 q 471 823 454 842 q 488 777 488 805 z "},"%":{"ha":859,"x_min":142,"x_max":717,"o":"m 545 157 l 659 157 q 700 138 684 157 q 717 92 717 120 l 717 7 q 701 -40 717 -22 q 659 -58 684 -58 l 545 -58 q 503 -40 519 -58 q 486 7 486 -22 l 486 92 q 502 139 486 121 q 545 157 518 157 m 700 646 l 250 66 q 228 46 239 53 q 200 40 216 40 q 159 57 176 40 q 142 97 142 73 q 146 118 142 107 q 158 139 150 128 l 608 717 q 632 738 619 730 q 659 745 644 745 q 699 728 682 745 q 717 688 717 711 q 712 667 717 677 q 700 646 708 656 m 200 842 l 314 842 q 356 823 339 842 q 372 777 372 805 l 372 692 q 356 644 372 662 q 314 627 340 627 l 200 627 q 158 645 174 627 q 142 692 142 663 l 142 777 q 158 824 142 806 q 200 842 174 842 z "},"&":{"ha":859,"x_min":142,"x_max":717,"o":"m 350 248 l 258 171 l 258 117 q 276 75 258 92 q 317 58 293 58 l 408 58 l 475 115 l 350 248 m 318 627 q 277 609 295 627 q 258 568 258 592 l 258 513 l 357 407 l 485 515 l 485 568 q 467 609 485 592 q 427 627 450 627 l 318 627 m 317 745 l 427 745 q 550 693 499 745 q 602 568 602 642 l 602 500 q 596 468 602 481 q 576 441 590 454 l 439 322 l 564 192 l 615 236 q 638 250 627 245 q 660 254 648 254 q 700 237 682 254 q 717 197 717 220 q 710 171 717 184 q 692 149 704 159 l 642 107 l 696 45 q 712 21 707 31 q 717 -1 717 11 q 700 -41 717 -24 q 660 -58 683 -58 q 634 -52 647 -58 q 611 -35 621 -46 l 554 29 l 452 -58 l 318 -58 q 193 -7 245 -58 q 142 117 142 44 l 142 186 q 148 220 142 206 q 167 244 153 233 l 271 330 l 163 446 q 146 470 151 458 q 142 507 142 483 l 142 568 q 193 692 142 640 q 317 745 245 745 z "},"'":{"ha":859,"x_min":315,"x_max":545,"o":"m 543 767 l 486 481 q 467 444 482 458 q 429 431 451 431 q 392 444 408 431 q 372 481 376 458 l 317 767 q 316 773 316 770 q 315 783 315 777 q 333 828 315 814 q 390 842 351 842 l 468 842 q 526 827 508 842 q 545 781 545 812 q 544 773 545 776 q 543 767 544 770 z "},"(":{"ha":859,"x_min":314,"x_max":602,"o":"m 586 741 l 461 582 q 439 541 447 564 q 431 498 431 519 l 431 285 q 439 243 431 265 q 461 201 447 221 l 586 41 q 597 20 593 31 q 602 0 602 10 q 585 -40 602 -24 q 545 -57 568 -57 q 516 -50 529 -57 q 493 -31 503 -43 l 378 118 q 329 201 345 161 q 314 285 314 241 l 314 498 q 329 581 314 541 q 378 664 344 621 l 493 812 q 517 833 504 826 q 545 840 530 840 q 585 823 568 840 q 602 782 602 806 q 597 762 602 772 q 586 741 593 751 z "},")":{"ha":859,"x_min":257,"x_max":545,"o":"m 365 813 l 481 664 q 529 581 513 621 q 545 498 545 541 l 545 285 q 529 201 545 241 q 481 118 514 161 l 366 -31 q 342 -50 355 -43 q 314 -57 329 -57 q 274 -40 290 -57 q 257 0 257 -24 q 261 20 257 9 q 274 41 266 31 l 397 201 q 420 242 412 220 q 428 285 428 264 l 428 498 q 420 541 428 519 q 397 582 412 564 l 274 741 q 261 762 266 751 q 257 782 257 773 q 274 823 257 806 q 314 840 291 840 q 341 833 328 840 q 365 813 355 826 z "},"*":{"ha":859,"x_min":142,"x_max":715,"o":"m 488 679 l 488 518 l 615 628 q 636 642 626 637 q 659 646 646 646 q 699 629 682 646 q 715 589 715 612 q 709 562 715 574 q 692 541 703 550 l 519 392 l 692 244 q 709 222 703 235 q 715 196 715 210 q 699 155 715 173 q 663 138 683 138 q 637 142 648 138 q 616 155 625 146 l 488 264 l 488 104 q 471 57 488 75 q 429 39 455 39 q 387 57 404 39 q 371 104 371 75 l 371 264 l 243 155 q 220 141 230 144 q 197 138 211 138 q 159 155 176 138 q 143 196 143 172 q 149 222 143 210 q 167 244 155 235 l 338 392 l 167 541 q 148 563 154 551 q 142 587 142 574 q 158 629 142 612 q 199 646 175 646 q 222 641 212 646 q 243 628 233 637 l 371 517 l 371 679 q 387 727 371 709 q 429 745 403 745 q 471 726 454 745 q 488 679 488 708 z "},"+":{"ha":859,"x_min":142,"x_max":717,"o":"m 371 170 l 371 334 l 207 334 q 159 350 177 334 q 142 392 142 366 q 160 434 142 417 q 207 450 178 450 l 371 450 l 371 614 q 387 661 371 644 q 429 679 403 679 q 471 661 454 679 q 488 614 488 642 l 488 450 l 652 450 q 699 434 681 450 q 717 392 717 418 q 699 350 717 366 q 652 334 680 334 l 488 334 l 488 170 q 471 122 488 140 q 429 104 455 104 q 387 123 404 104 q 371 170 371 141 z "},",":{"ha":859,"x_min":257,"x_max":602,"o":"m 321 351 l 543 351 q 585 334 569 351 q 602 288 602 316 l 602 7 q 585 -40 602 -22 q 543 -58 569 -58 q 501 -40 517 -58 q 485 7 485 -22 l 485 235 l 321 235 q 274 251 291 235 q 257 293 257 267 q 275 335 257 319 q 321 351 292 351 z "},"-":{"ha":859,"x_min":142,"x_max":717,"o":"m 207 450 l 652 450 q 699 434 681 450 q 717 392 717 418 l 717 343 q 698 300 717 317 q 652 283 680 283 l 207 283 q 160 300 178 283 q 142 343 142 317 l 142 392 q 160 434 142 417 q 207 450 178 450 z "},".":{"ha":859,"x_min":314,"x_max":545,"o":"m 372 302 l 486 302 q 528 285 512 302 q 545 239 545 267 l 545 153 q 529 105 545 123 q 486 87 513 87 l 372 87 q 330 106 347 87 q 314 153 314 124 l 314 239 q 330 286 314 269 q 372 302 346 302 z "},"/":{"ha":859,"x_min":142,"x_max":717,"o":"m 705 750 l 254 -24 q 230 -49 243 -41 q 200 -57 217 -57 q 158 -41 175 -57 q 142 0 142 -25 q 144 17 142 8 q 153 35 147 26 l 604 808 q 628 833 614 825 q 659 842 642 842 q 700 825 682 842 q 717 783 717 808 q 714 767 717 776 q 705 750 711 758 z "},":":{"ha":859,"x_min":314,"x_max":545,"o":"m 372 302 l 486 302 q 528 285 512 302 q 545 239 545 267 l 545 153 q 529 105 545 123 q 486 87 513 87 l 372 87 q 330 106 347 87 q 314 153 314 124 l 314 239 q 330 286 314 269 q 372 302 346 302 m 372 694 l 486 694 q 528 676 511 694 q 545 629 545 658 l 545 545 q 529 497 545 515 q 486 479 513 479 l 372 479 q 330 498 347 479 q 314 545 314 516 l 314 629 q 330 677 314 659 q 372 694 346 694 z "},";":{"ha":859,"x_min":257,"x_max":602,"o":"m 321 351 l 543 351 q 585 334 569 351 q 602 288 602 316 l 602 7 q 585 -40 602 -22 q 543 -58 569 -58 q 501 -40 517 -58 q 485 7 485 -22 l 485 235 l 321 235 q 274 251 291 235 q 257 293 257 267 q 275 335 257 319 q 321 351 292 351 m 372 694 l 486 694 q 528 676 511 694 q 545 629 545 658 l 545 545 q 529 497 545 515 q 486 479 513 479 l 372 479 q 330 498 347 479 q 314 545 314 516 l 314 629 q 330 677 314 659 q 372 694 346 694 z "},"<":{"ha":859,"x_min":142,"x_max":717,"o":"m 623 52 l 176 314 q 151 338 160 324 q 142 368 142 353 l 142 415 q 151 446 142 431 q 176 469 160 460 l 623 732 q 643 741 635 739 q 657 743 650 743 q 699 727 682 743 q 717 686 717 710 q 708 655 717 670 q 682 632 699 641 l 271 393 l 682 151 q 708 127 699 141 q 717 97 717 113 q 700 56 717 73 q 657 40 682 40 q 643 42 650 40 q 623 52 635 45 z "},"=":{"ha":859,"x_min":142,"x_max":717,"o":"m 207 597 l 652 597 q 699 581 680 597 q 717 538 717 564 q 699 496 717 512 q 652 479 680 479 l 207 479 q 159 495 177 479 q 142 538 142 511 q 160 581 142 564 q 207 597 178 597 m 207 351 l 652 351 q 699 335 681 351 q 717 293 717 319 q 699 251 717 268 q 652 235 680 235 l 207 235 q 159 251 177 235 q 142 293 142 267 q 160 335 142 319 q 207 351 178 351 z "},">":{"ha":859,"x_min":142,"x_max":717,"o":"m 235 732 l 682 469 q 708 446 699 460 q 717 415 717 431 l 717 368 q 708 337 717 352 q 682 314 699 323 l 235 52 q 216 43 224 45 q 201 40 208 40 q 159 57 176 40 q 142 97 142 73 q 151 128 142 113 q 176 151 160 142 l 587 390 l 176 632 q 151 656 159 643 q 142 686 142 670 q 159 727 142 710 q 201 743 176 743 q 216 741 208 743 q 235 732 224 738 z "},"?":{"ha":859,"x_min":142,"x_max":717,"o":"m 314 58 q 355 41 338 58 q 372 0 372 24 q 355 -41 372 -24 q 314 -58 338 -58 q 274 -41 291 -58 q 257 0 257 -23 q 273 41 257 24 q 314 58 290 58 m 608 807 l 668 755 l 669 755 q 717 679 717 713 l 717 595 q 712 564 717 576 q 688 536 707 553 l 374 268 l 374 203 q 357 156 374 174 q 315 138 341 138 q 273 156 290 138 q 257 203 257 174 l 257 288 q 262 317 257 306 q 286 345 267 328 l 600 612 l 600 661 l 545 707 l 243 450 q 220 436 231 440 q 196 432 209 432 q 158 449 175 432 q 142 488 142 465 q 148 515 142 502 q 167 538 155 528 l 501 823 q 522 838 513 834 q 543 842 532 842 q 569 836 556 842 q 608 807 581 829 z "},"@":{"ha":859,"x_min":142,"x_max":717,"o":"m 142 115 l 142 325 q 193 448 142 397 q 315 498 244 498 l 429 498 q 471 480 454 498 q 488 433 488 462 l 488 115 q 504 74 488 90 q 543 58 519 58 q 583 75 566 58 q 600 115 600 92 l 600 637 q 574 700 600 674 q 513 725 549 725 l 339 725 q 295 714 314 725 q 262 679 276 703 q 259 673 261 677 q 200 628 235 628 q 159 645 177 628 q 142 685 142 662 q 202 789 142 737 q 339 842 263 842 l 511 842 q 656 782 596 842 q 717 637 717 722 l 717 115 q 666 -7 717 44 q 543 -58 614 -58 q 485 -48 513 -58 q 427 -14 457 -37 q 372 -48 398 -38 q 315 -58 347 -58 q 193 -7 244 -58 q 142 115 142 43 m 371 115 l 371 382 l 315 382 q 275 365 292 382 q 258 325 258 348 l 258 115 q 275 75 258 92 q 315 58 292 58 q 355 75 338 58 q 371 115 371 92 z "},"A":{"ha":859,"x_min":143,"x_max":715,"o":"m 429 575 l 335 254 l 522 254 l 429 575 m 492 777 l 711 22 q 714 9 713 16 q 715 -1 715 3 q 699 -42 715 -25 q 659 -58 682 -58 q 622 -45 638 -58 q 600 -10 606 -32 l 557 138 l 302 138 l 258 -9 q 236 -46 250 -35 q 199 -58 221 -58 q 160 -42 176 -58 q 143 -3 143 -25 q 144 13 143 7 q 146 22 144 18 l 366 777 q 390 827 376 813 q 429 842 405 842 q 467 828 453 842 q 492 777 481 814 z "},"B":{"ha":859,"x_min":142,"x_max":717,"o":"m 258 334 l 258 58 l 482 58 q 566 93 531 58 q 600 175 600 127 l 600 216 q 565 299 600 264 q 482 334 530 334 l 258 334 m 258 725 l 258 450 l 482 450 q 566 485 531 450 q 600 567 600 519 l 600 608 q 565 690 600 656 q 482 725 530 725 l 258 725 m 142 842 l 482 842 q 647 772 578 842 q 717 608 717 703 l 717 568 q 695 468 717 517 q 636 392 673 420 q 696 311 675 356 q 717 216 717 265 l 717 176 q 648 11 717 80 q 482 -58 578 -58 l 142 -58 l 142 842 z "},"C":{"ha":859,"x_min":142,"x_max":717,"o":"m 446 -58 q 352 -32 391 -58 q 283 52 312 -5 l 163 292 q 147 337 152 313 q 142 390 142 361 q 147 446 142 420 q 163 492 152 471 l 283 732 q 351 815 311 788 q 446 842 391 842 l 652 842 q 699 825 681 842 q 717 783 717 809 q 699 742 717 758 q 652 725 680 725 l 446 725 q 414 715 429 725 q 390 689 399 706 l 271 447 q 262 421 265 435 q 260 392 260 408 q 262 362 260 376 q 271 336 265 349 l 390 96 q 414 68 399 79 q 446 58 429 58 l 652 58 q 699 42 681 58 q 717 0 717 26 q 699 -42 717 -26 q 652 -58 680 -58 l 446 -58 z "},"D":{"ha":859,"x_min":142,"x_max":717,"o":"m 412 725 l 374 725 l 374 58 l 412 58 q 445 68 430 58 q 468 94 460 77 l 587 336 q 596 362 593 349 q 599 392 599 376 q 596 421 599 408 q 587 447 593 435 l 468 688 q 444 715 459 705 q 412 725 429 725 m 412 842 q 507 815 467 842 q 575 732 546 789 l 696 492 q 711 446 706 471 q 717 392 717 421 q 711 338 717 363 q 696 292 706 313 l 575 52 q 508 -32 547 -5 q 412 -58 468 -58 l 207 -58 q 160 -42 178 -58 q 142 0 142 -26 q 160 42 142 26 q 207 58 178 58 l 257 58 l 257 725 l 207 725 q 160 741 178 725 q 142 783 142 758 q 160 825 142 809 q 207 842 178 842 l 412 842 z "},"E":{"ha":859,"x_min":142,"x_max":717,"o":"m 142 842 l 652 842 q 699 825 681 842 q 717 783 717 809 q 699 742 717 758 q 652 725 680 725 l 258 725 l 258 450 l 424 450 q 470 434 452 450 q 488 392 488 418 q 470 350 488 366 q 424 334 452 334 l 258 334 l 258 58 l 652 58 q 699 42 681 58 q 717 0 717 26 q 699 -42 717 -26 q 652 -58 680 -58 l 142 -58 l 142 842 z "},"F":{"ha":859,"x_min":142,"x_max":717,"o":"m 142 842 l 652 842 q 699 825 681 842 q 717 783 717 809 q 699 742 717 758 q 652 725 680 725 l 258 725 l 258 547 l 538 547 q 584 531 566 547 q 602 489 602 515 q 584 447 602 463 q 538 431 566 431 l 258 431 l 258 7 q 242 -40 258 -22 q 200 -58 226 -58 q 158 -40 174 -58 q 142 7 142 -22 l 142 842 z "},"G":{"ha":859,"x_min":142,"x_max":717,"o":"m 484 842 l 652 842 q 699 825 681 842 q 717 783 717 809 q 699 742 717 758 q 652 725 680 725 l 485 725 q 460 719 473 725 q 443 707 448 713 l 293 513 q 266 468 273 486 q 258 429 258 450 l 258 117 q 276 76 258 93 q 317 58 294 58 l 541 58 q 581 76 564 58 q 599 117 599 93 l 599 235 l 493 235 q 446 251 463 235 q 428 293 428 267 q 446 335 428 319 q 493 351 465 351 l 717 351 l 717 117 q 665 -7 717 45 q 542 -58 614 -58 l 318 -58 q 193 -7 245 -58 q 142 117 142 44 l 142 429 q 155 505 142 469 q 208 595 169 541 l 343 774 q 405 822 366 803 q 484 842 444 842 z "},"H":{"ha":859,"x_min":142,"x_max":717,"o":"m 258 777 l 258 450 l 600 450 l 600 777 q 616 824 600 806 q 659 842 632 842 q 700 823 684 842 q 717 777 717 805 l 717 7 q 701 -40 717 -22 q 659 -58 684 -58 q 616 -40 633 -58 q 600 7 600 -22 l 600 334 l 258 334 l 258 7 q 242 -40 258 -22 q 200 -58 226 -58 q 158 -40 174 -58 q 142 7 142 -22 l 142 777 q 158 824 142 806 q 200 842 174 842 q 242 823 225 842 q 258 777 258 805 z "},"I":{"ha":859,"x_min":142,"x_max":717,"o":"m 652 842 q 699 825 681 842 q 717 783 717 809 q 699 742 717 758 q 652 725 680 725 l 488 725 l 488 58 l 652 58 q 699 42 681 58 q 717 0 717 26 q 699 -42 717 -26 q 652 -58 680 -58 l 207 -58 q 160 -42 178 -58 q 142 0 142 -26 q 160 42 142 26 q 207 58 178 58 l 371 58 l 371 725 l 207 725 q 160 741 178 725 q 142 783 142 758 q 160 825 142 809 q 207 842 178 842 l 652 842 z "},"J":{"ha":859,"x_min":199,"x_max":660,"o":"m 660 777 l 660 117 q 608 -7 660 45 q 484 -58 555 -58 l 375 -58 q 250 -7 302 -58 q 199 117 199 44 l 199 288 q 215 334 199 317 q 257 351 231 351 q 300 333 283 351 q 317 288 317 315 l 317 117 q 334 75 317 92 q 375 58 351 58 l 484 58 q 525 76 507 58 q 543 117 543 94 l 543 777 q 559 824 543 806 q 602 842 575 842 q 643 823 627 842 q 660 777 660 805 z "},"K":{"ha":859,"x_min":142,"x_max":717,"o":"m 258 777 l 258 518 l 615 823 q 636 838 626 833 q 659 842 646 842 q 700 825 682 842 q 717 786 717 808 q 710 759 717 772 q 692 736 704 746 l 289 392 l 692 47 q 710 23 703 37 q 717 -3 717 10 q 700 -42 717 -25 q 659 -58 682 -58 q 636 -54 646 -58 q 615 -40 626 -50 l 258 265 l 258 7 q 242 -40 258 -22 q 200 -58 226 -58 q 158 -40 174 -58 q 142 7 142 -22 l 142 777 q 158 824 142 806 q 200 842 174 842 q 242 823 225 842 q 258 777 258 805 z "},"L":{"ha":859,"x_min":142,"x_max":717,"o":"m 258 777 l 258 58 l 652 58 q 699 42 681 58 q 717 0 717 26 q 699 -42 717 -26 q 652 -58 680 -58 l 142 -58 l 142 777 q 158 824 142 806 q 200 842 174 842 q 242 823 225 842 q 258 777 258 805 z "},"M":{"ha":859,"x_min":142,"x_max":717,"o":"m 142 842 l 286 842 l 429 639 l 572 842 l 717 842 l 717 7 q 701 -40 717 -22 q 659 -58 684 -58 q 616 -40 633 -58 q 600 7 600 -22 l 600 676 l 488 521 l 488 496 q 471 449 488 467 q 429 431 455 431 q 387 449 404 431 q 371 496 371 467 l 371 521 l 258 676 l 258 7 q 242 -40 258 -22 q 200 -58 226 -58 q 158 -40 174 -58 q 142 7 142 -22 l 142 842 z "},"N":{"ha":859,"x_min":142,"x_max":717,"o":"m 142 842 l 296 842 l 600 149 l 600 777 q 616 824 600 806 q 659 842 632 842 q 700 823 684 842 q 717 777 717 805 l 717 -58 l 562 -58 l 258 632 l 258 7 q 242 -40 258 -22 q 200 -58 226 -58 q 158 -40 174 -58 q 142 7 142 -22 l 142 842 z "},"O":{"ha":859,"x_min":142,"x_max":717,"o":"m 460 703 q 446 720 452 715 q 429 725 439 725 q 411 719 420 725 q 397 703 402 713 l 272 456 q 262 427 266 444 q 258 392 258 409 q 262 357 258 374 q 272 327 266 339 l 399 81 q 412 63 406 68 q 429 58 419 58 q 448 64 439 58 q 461 81 456 70 l 586 326 q 596 356 592 338 q 600 392 600 374 q 596 428 600 410 q 586 457 592 446 l 460 703 m 571 743 l 692 505 q 710 453 703 483 q 717 392 717 423 q 710 330 717 360 q 692 278 703 300 l 571 40 q 510 -36 543 -14 q 429 -58 477 -58 q 348 -36 380 -58 q 288 40 315 -14 l 167 278 q 148 331 155 302 q 142 392 142 361 q 148 453 142 423 q 167 505 155 483 l 288 743 q 348 819 315 797 q 429 842 380 842 q 510 819 477 842 q 571 743 543 797 z "},"P":{"ha":859,"x_min":142,"x_max":717,"o":"m 258 725 l 258 401 l 541 401 q 582 419 564 401 q 599 460 599 437 l 599 667 q 582 707 599 690 q 541 725 564 725 l 258 725 m 142 842 l 541 842 q 665 790 612 842 q 717 667 717 739 l 717 460 q 665 335 717 387 q 541 283 614 283 l 258 283 l 258 7 q 242 -40 258 -22 q 200 -58 226 -58 q 158 -40 174 -58 q 142 7 142 -22 l 142 842 z "},"Q":{"ha":859,"x_min":142,"x_max":717,"o":"m 717 700 l 717 371 q 697 277 717 324 q 647 205 677 231 l 557 127 l 585 58 l 652 58 q 699 42 681 58 q 717 0 717 26 q 699 -42 717 -26 q 652 -58 680 -58 l 505 -58 l 464 47 l 386 -17 q 336 -48 363 -37 q 283 -58 310 -58 q 183 -17 225 -58 q 142 83 142 25 l 142 410 q 162 504 142 456 q 211 576 182 551 l 476 800 q 525 832 502 822 q 575 842 549 842 q 675 800 633 842 q 717 700 717 758 m 600 700 q 593 718 600 710 q 575 725 585 725 q 567 723 571 725 q 558 717 562 721 l 293 493 q 268 457 278 480 q 258 410 258 433 l 258 83 q 266 66 258 73 q 283 58 273 58 q 292 61 287 58 q 300 66 296 63 l 418 164 l 378 268 q 372 283 374 278 q 371 292 371 288 q 388 334 371 317 q 429 351 405 351 q 464 340 448 351 q 486 310 479 329 l 511 243 l 566 288 q 590 323 580 300 q 600 371 600 347 l 600 700 z "},"R":{"ha":859,"x_min":142,"x_max":717,"o":"m 258 725 l 258 547 l 541 547 q 582 566 564 547 q 599 607 599 584 l 599 667 q 581 707 599 690 q 541 725 564 725 l 258 725 m 142 842 l 541 842 q 665 790 612 842 q 717 667 717 739 l 717 607 q 665 483 717 534 q 541 431 614 431 l 478 431 l 705 35 q 714 16 711 24 q 717 1 717 8 q 700 -40 717 -23 q 659 -57 683 -57 q 627 -48 642 -57 q 604 -24 613 -39 l 342 431 l 258 431 l 258 7 q 242 -40 258 -22 q 200 -58 226 -58 q 158 -40 174 -58 q 142 7 142 -22 l 142 842 z "},"S":{"ha":859,"x_min":142,"x_max":717,"o":"m 272 842 l 559 842 q 670 796 623 842 q 717 692 717 750 q 701 645 717 663 q 659 627 684 627 q 620 640 633 627 q 597 696 606 653 q 584 716 595 707 q 559 725 572 725 l 272 725 q 263 721 267 725 q 258 711 258 716 q 259 707 258 709 q 262 701 260 705 l 681 164 q 708 117 699 140 q 717 72 717 95 q 679 -20 717 18 q 586 -58 640 -58 l 298 -58 q 189 -12 236 -58 q 142 92 142 34 q 158 139 142 121 q 200 157 174 157 q 238 143 224 157 q 261 87 252 130 q 275 67 263 77 q 298 58 286 58 l 586 58 q 596 62 592 58 q 600 72 600 66 q 599 76 600 74 q 596 82 598 79 l 178 619 q 151 666 159 644 q 142 711 142 688 q 180 803 142 765 q 272 842 218 842 z "},"T":{"ha":859,"x_min":142,"x_max":717,"o":"m 142 842 l 717 842 l 717 692 q 701 645 717 663 q 659 627 684 627 q 616 645 633 627 q 600 692 600 663 l 600 725 l 488 725 l 488 7 q 471 -40 488 -22 q 429 -58 455 -58 q 387 -40 404 -58 q 371 7 371 -22 l 371 725 l 258 725 l 258 692 q 242 645 258 663 q 200 627 226 627 q 158 645 174 627 q 142 692 142 663 l 142 842 z "},"U":{"ha":859,"x_min":142,"x_max":717,"o":"m 258 777 l 258 117 q 276 75 258 92 q 317 58 293 58 l 541 58 q 582 76 564 58 q 600 117 600 94 l 600 777 q 616 824 600 806 q 659 842 632 842 q 700 823 684 842 q 717 777 717 805 l 717 117 q 665 -7 717 45 q 542 -58 614 -58 l 318 -58 q 193 -7 245 -58 q 142 117 142 44 l 142 777 q 158 824 142 806 q 200 842 174 842 q 242 823 225 842 q 258 777 258 805 z "},"V":{"ha":859,"x_min":142,"x_max":717,"o":"m 258 777 l 258 600 l 429 151 l 600 600 l 600 777 q 616 823 600 805 q 659 842 633 842 q 701 824 684 842 q 717 777 717 806 l 717 578 l 488 -8 q 464 -48 477 -37 q 429 -58 450 -58 q 393 -47 408 -58 q 370 -8 379 -35 l 142 578 l 142 777 q 158 824 142 806 q 200 842 174 842 q 242 823 225 842 q 258 777 258 805 z "},"W":{"ha":859,"x_min":142,"x_max":717,"o":"m 258 777 l 258 113 l 292 58 l 340 58 l 371 113 l 371 484 q 387 530 371 513 q 429 547 403 547 q 471 530 455 547 q 488 484 488 512 l 488 113 l 518 58 l 567 58 l 600 113 l 600 777 q 616 823 600 805 q 659 842 633 842 q 701 824 684 842 q 717 777 717 806 l 717 103 q 714 83 717 92 q 709 68 712 74 l 665 -8 q 635 -46 651 -34 q 600 -58 619 -58 l 488 -58 q 446 -41 463 -58 q 429 4 429 -23 l 429 7 l 429 4 q 413 -41 429 -23 q 371 -58 396 -58 l 258 -58 q 224 -46 239 -58 q 195 -8 209 -35 l 150 68 q 144 84 146 75 q 142 103 142 92 l 142 777 q 158 824 142 806 q 200 842 174 842 q 242 823 225 842 q 258 777 258 805 z "},"X":{"ha":859,"x_min":142,"x_max":717,"o":"m 254 808 l 429 507 l 604 808 q 628 833 614 825 q 659 842 642 842 q 700 825 682 842 q 717 783 717 808 q 714 767 717 776 q 705 750 711 758 l 496 392 l 705 34 q 714 14 712 22 q 717 0 717 7 q 699 -42 717 -24 q 659 -60 682 -60 q 630 -51 644 -60 q 606 -25 616 -41 l 428 275 l 252 -25 q 227 -51 240 -43 q 199 -60 214 -60 q 158 -43 175 -60 q 142 0 142 -26 q 144 17 142 8 q 151 33 146 26 l 359 389 l 153 749 q 144 768 146 760 q 142 783 142 775 q 159 825 142 808 q 200 842 176 842 q 231 833 216 842 q 254 808 245 824 z "},"Y":{"ha":859,"x_min":142,"x_max":717,"o":"m 258 777 l 258 704 l 429 490 l 600 704 l 600 777 q 616 823 600 805 q 659 842 633 842 q 701 824 684 842 q 717 777 717 806 l 717 664 l 488 375 l 488 7 q 471 -40 488 -22 q 429 -58 455 -58 q 387 -40 404 -58 q 371 7 371 -22 l 371 375 l 142 664 l 142 777 q 158 824 142 806 q 200 842 174 842 q 242 823 225 842 q 258 777 258 805 z "},"Z":{"ha":859,"x_min":142,"x_max":717,"o":"m 207 842 l 717 842 l 717 765 l 304 58 l 652 58 q 699 42 681 58 q 717 0 717 26 q 699 -42 717 -26 q 652 -58 680 -58 l 142 -58 l 142 18 l 557 725 l 207 725 q 159 741 177 725 q 142 783 142 757 q 160 825 142 809 q 207 842 178 842 z "},"[":{"ha":859,"x_min":142,"x_max":717,"o":"m 258 725 l 258 58 l 314 58 l 314 725 l 258 725 m 207 842 l 652 842 q 699 825 681 842 q 717 783 717 809 q 699 742 717 758 q 652 725 680 725 l 431 725 l 431 58 l 652 58 q 699 42 681 58 q 717 0 717 26 q 699 -42 717 -26 q 652 -58 680 -58 l 207 -58 q 159 -42 177 -58 q 142 0 142 -26 l 142 783 q 160 825 142 809 q 207 842 178 842 z "},"\\":{"ha":859,"x_min":142,"x_max":717,"o":"m 153 750 q 144 767 147 759 q 142 783 142 776 q 158 825 142 808 q 200 842 175 842 q 230 833 217 842 q 254 808 243 825 l 705 35 q 714 17 711 26 q 717 0 717 7 q 700 -42 717 -25 q 659 -58 682 -58 q 629 -50 642 -58 q 604 -24 615 -41 l 153 750 z "},"]":{"ha":859,"x_min":142,"x_max":717,"o":"m 545 725 l 545 58 l 600 58 l 600 725 l 545 725 m 207 842 l 652 842 q 699 825 681 842 q 717 783 717 809 l 717 0 q 699 -42 717 -26 q 652 -58 680 -58 l 207 -58 q 160 -42 178 -58 q 142 0 142 -26 q 160 42 142 26 q 207 58 178 58 l 428 58 l 428 725 l 207 725 q 159 741 177 725 q 142 783 142 757 q 160 825 142 809 q 207 842 178 842 z "},"^":{"ha":859,"x_min":143,"x_max":717,"o":"m 707 180 q 714 160 712 169 q 717 144 717 152 q 700 105 717 122 q 659 89 682 89 q 628 98 642 89 q 602 126 614 106 l 429 390 l 257 126 q 230 98 243 106 q 200 89 217 89 q 159 105 176 89 q 143 144 143 121 q 145 162 143 154 q 151 179 147 171 l 366 596 q 394 634 379 622 q 429 646 410 646 q 464 634 448 646 q 493 596 479 622 l 707 180 z "},"a":{"ha":859,"x_min":142,"x_max":717,"o":"m 314 236 q 275 219 292 236 q 258 179 258 202 l 258 114 q 275 75 258 92 q 315 58 292 58 l 471 58 l 596 129 l 595 180 q 578 220 595 204 q 538 236 561 236 l 314 236 m 321 597 l 528 597 q 648 549 598 597 q 701 425 699 500 l 717 8 l 717 5 q 700 -40 717 -22 q 660 -58 684 -58 q 620 -43 635 -58 q 600 0 604 -28 l 532 -43 q 507 -54 522 -50 q 481 -58 492 -58 l 315 -58 q 193 -8 243 -58 q 142 114 142 43 l 142 179 q 193 301 142 250 q 315 353 245 353 l 538 353 q 565 350 552 353 q 589 343 577 348 l 585 425 q 568 466 583 450 q 528 481 552 481 l 321 481 q 275 496 292 481 q 258 539 258 512 q 276 581 258 565 q 321 597 293 597 z "},"b":{"ha":859,"x_min":142,"x_max":717,"o":"m 412 481 q 392 477 401 481 q 372 464 382 473 l 273 385 q 263 368 267 379 q 258 345 258 357 l 258 196 q 262 172 258 182 q 274 155 267 161 l 372 75 q 393 63 382 67 q 412 58 403 58 l 503 58 q 522 62 513 58 q 543 75 530 65 l 582 106 q 594 123 589 111 q 599 146 599 134 l 599 395 q 594 416 599 405 q 582 433 589 428 l 543 464 q 523 477 532 474 q 503 481 514 481 l 412 481 m 258 777 l 258 519 l 301 557 q 353 587 323 576 q 412 597 382 597 l 503 597 q 562 587 534 597 q 615 557 591 577 l 654 526 q 699 469 681 506 q 717 399 717 433 l 717 146 q 699 72 717 109 q 654 12 682 35 l 615 -18 q 562 -48 590 -38 q 503 -58 534 -58 l 412 -58 q 353 -48 382 -58 q 301 -18 323 -37 l 258 20 l 258 7 q 242 -40 258 -22 q 200 -58 226 -58 q 158 -40 174 -58 q 142 7 142 -22 l 142 777 q 158 824 142 806 q 200 842 174 842 q 242 823 225 842 q 258 777 258 805 z "},"c":{"ha":859,"x_min":142,"x_max":717,"o":"m 419 597 l 652 597 q 699 581 680 597 q 717 539 717 564 q 700 497 717 513 q 652 482 682 482 l 419 482 q 399 478 409 482 q 379 464 390 473 l 275 374 q 263 357 268 368 q 258 335 258 346 l 258 205 q 263 183 258 194 q 275 165 268 172 l 380 75 q 401 62 392 65 q 419 58 410 58 l 652 58 q 699 42 681 58 q 717 0 717 26 q 699 -42 717 -26 q 652 -58 680 -58 l 419 -58 q 359 -47 390 -58 q 307 -18 328 -36 l 203 74 q 157 134 173 100 q 142 205 142 168 l 142 334 q 157 405 142 370 q 203 465 173 439 l 307 557 q 359 586 328 575 q 419 597 390 597 z "},"d":{"ha":859,"x_min":140,"x_max":717,"o":"m 354 481 q 316 465 336 481 q 314 464 315 465 l 275 433 q 263 416 268 427 q 258 395 258 406 l 258 146 q 263 123 258 134 q 275 106 268 111 l 314 75 q 315 74 315 75 q 354 58 336 58 l 444 58 q 464 62 454 58 q 485 75 474 66 l 583 155 q 594 172 590 161 q 599 196 599 184 l 599 345 q 594 368 599 357 q 583 385 590 379 l 485 464 q 465 477 475 473 q 444 481 456 481 l 354 481 m 717 777 l 717 7 q 700 -40 717 -22 q 657 -58 683 -58 q 615 -41 631 -58 q 599 7 599 -23 l 599 20 l 555 -18 q 504 -48 534 -37 q 444 -58 475 -58 l 354 -58 q 296 -48 324 -58 q 243 -18 268 -38 l 203 12 q 157 71 174 35 q 140 146 140 107 l 140 399 q 158 469 140 433 q 203 526 176 506 l 243 557 q 296 587 269 577 q 354 597 323 597 l 444 597 q 504 587 475 597 q 555 557 534 576 l 599 519 l 599 777 q 615 823 599 805 q 657 842 631 842 q 700 824 683 842 q 717 777 717 806 z "},"e":{"ha":859,"x_min":142,"x_max":717,"o":"m 366 482 q 348 478 357 482 q 329 468 338 475 l 279 427 q 264 407 270 419 q 258 383 258 395 l 258 304 l 600 304 l 600 383 q 594 407 600 395 q 580 426 589 419 l 529 468 q 511 478 520 475 q 493 482 502 482 l 366 482 m 364 597 l 493 597 q 551 587 522 597 q 604 557 580 576 l 654 517 q 700 457 683 493 q 717 383 717 421 l 717 244 q 699 202 717 219 q 652 186 680 186 l 258 186 l 258 155 q 264 132 258 143 q 279 113 270 120 l 329 71 q 346 61 337 64 q 366 58 354 58 l 652 58 q 699 42 681 58 q 717 0 717 26 q 699 -42 717 -26 q 652 -58 680 -58 l 364 -58 q 307 -48 335 -58 q 254 -18 279 -38 l 204 24 q 158 83 175 47 q 142 155 142 118 l 142 383 q 158 457 142 421 q 204 517 175 493 l 254 557 q 307 587 279 577 q 364 597 335 597 z "},"f":{"ha":859,"x_min":170,"x_max":688,"o":"m 488 842 l 623 842 q 670 825 652 842 q 688 783 688 809 q 669 742 688 758 q 623 725 651 725 l 488 725 q 426 699 452 725 q 400 637 400 672 l 400 597 l 509 597 q 556 581 538 597 q 574 539 574 565 q 555 497 574 513 q 509 481 537 481 l 400 481 l 400 7 q 384 -40 400 -22 q 342 -58 368 -58 q 300 -40 316 -58 q 283 7 283 -22 l 283 481 l 235 481 q 187 497 205 481 q 170 539 170 513 q 188 581 170 564 q 235 597 206 597 l 283 597 l 283 637 q 344 782 283 722 q 488 842 404 842 z "},"g":{"ha":859,"x_min":140,"x_max":717,"o":"m 599 533 q 615 580 599 562 q 657 597 631 597 q 700 579 683 597 q 717 533 717 562 l 717 -89 q 700 -161 717 -126 q 654 -221 684 -197 l 603 -262 q 550 -292 578 -282 q 493 -302 522 -302 l 265 -302 q 218 -286 237 -302 q 200 -244 200 -270 q 218 -202 200 -218 q 265 -186 236 -186 l 492 -186 q 513 -183 505 -186 q 529 -174 521 -180 l 580 -132 q 593 -114 588 -125 q 599 -89 598 -102 l 599 20 l 555 -18 q 504 -48 534 -37 q 444 -58 475 -58 l 354 -58 q 296 -48 323 -58 q 243 -18 269 -39 l 203 12 q 158 70 176 33 q 140 140 140 106 l 140 395 q 158 468 140 431 q 203 526 175 505 l 243 557 q 296 587 269 577 q 354 597 323 597 l 444 597 q 504 587 475 597 q 555 557 534 576 l 599 519 l 599 533 m 600 195 l 600 343 q 595 366 600 355 q 583 383 590 378 l 485 464 q 464 476 475 472 q 444 481 454 481 l 354 481 q 334 477 343 481 q 314 464 324 473 l 275 433 q 263 416 268 427 q 258 393 258 405 l 258 144 q 263 122 258 134 q 275 106 268 111 l 313 75 l 315 74 q 354 58 335 58 l 444 58 q 465 62 456 58 q 485 75 475 66 l 583 154 q 595 172 590 160 q 600 195 600 183 z "},"h":{"ha":859,"x_min":142,"x_max":715,"o":"m 258 777 l 258 501 l 343 557 q 350 562 346 559 q 454 597 403 597 l 528 597 q 649 549 599 597 q 701 425 699 500 l 715 8 l 715 5 q 699 -40 715 -22 q 660 -58 683 -58 q 617 -41 633 -58 q 599 4 600 -24 l 585 425 q 567 465 583 450 q 528 481 551 481 l 453 481 q 434 477 443 481 q 411 464 426 474 l 258 361 l 258 7 q 242 -40 258 -22 q 200 -58 226 -58 q 158 -40 174 -58 q 142 7 142 -22 l 142 777 q 158 824 142 806 q 200 842 174 842 q 242 823 225 842 q 258 777 258 805 z "},"i":{"ha":859,"x_min":199,"x_max":659,"o":"m 264 597 l 422 597 q 470 581 452 597 q 488 539 488 565 l 488 58 l 595 58 q 641 42 623 58 q 659 0 659 26 q 641 -42 659 -26 q 595 -58 623 -58 l 264 -58 q 217 -42 235 -58 q 199 0 199 -26 q 217 42 199 26 q 264 58 235 58 l 370 58 l 370 481 l 264 481 q 216 497 234 481 q 199 539 199 513 q 217 581 199 564 q 264 597 235 597 m 378 890 l 435 890 q 471 873 454 890 q 488 832 488 855 l 488 783 q 469 742 488 758 q 422 725 451 725 l 378 725 q 330 741 348 725 q 313 783 313 757 l 313 832 q 331 874 313 858 q 378 890 349 890 z "},"j":{"ha":859,"x_min":199,"x_max":659,"o":"m 378 597 l 600 597 q 642 579 626 597 q 659 533 659 562 l 659 -117 q 607 -239 659 -188 q 485 -290 555 -290 l 371 -290 q 251 -241 304 -290 q 199 -140 199 -193 q 215 -103 199 -118 q 256 -89 232 -89 q 312 -131 286 -89 q 371 -174 338 -174 l 486 -174 q 525 -157 509 -174 q 542 -117 542 -140 l 542 481 l 378 481 q 330 497 348 481 q 313 539 313 513 q 331 581 313 564 q 378 597 349 597 m 549 890 l 606 890 q 642 873 625 890 q 659 832 659 855 l 659 783 q 640 742 659 758 q 593 725 622 725 l 549 725 q 501 741 519 725 q 484 783 484 757 l 484 832 q 502 874 484 858 q 549 890 519 890 z "},"k":{"ha":859,"x_min":142,"x_max":717,"o":"m 258 777 l 258 321 l 559 581 q 582 595 572 591 q 603 599 592 599 q 643 582 627 599 q 660 542 660 565 q 654 516 660 529 q 636 493 648 504 l 406 293 l 692 49 q 711 26 705 38 q 717 1 717 15 q 701 -40 717 -23 q 661 -57 684 -57 q 637 -53 648 -57 q 615 -40 626 -49 l 315 216 l 258 168 l 258 7 q 242 -40 258 -22 q 200 -58 226 -58 q 158 -40 174 -58 q 142 7 142 -22 l 142 777 q 158 824 142 806 q 200 842 174 842 q 242 823 225 842 q 258 777 258 805 z "},"l":{"ha":859,"x_min":199,"x_max":659,"o":"m 264 842 l 422 842 q 470 825 452 842 q 488 783 488 809 l 488 58 l 595 58 q 641 42 623 58 q 659 0 659 26 q 641 -42 659 -26 q 595 -58 623 -58 l 264 -58 q 217 -42 235 -58 q 199 0 199 -26 q 217 42 199 26 q 264 58 235 58 l 370 58 l 370 725 l 264 725 q 216 741 234 725 q 199 783 199 757 q 217 825 199 809 q 264 842 235 842 z "},"m":{"ha":859,"x_min":129,"x_max":729,"o":"m 714 464 l 729 8 l 729 5 q 712 -40 729 -22 q 672 -58 696 -58 q 630 -41 646 -58 q 612 5 614 -24 l 597 458 q 591 474 597 468 q 575 481 585 481 q 567 479 571 481 q 559 475 562 477 l 488 412 l 488 7 q 471 -40 488 -22 q 429 -58 455 -58 q 387 -40 404 -58 q 371 7 371 -22 l 371 456 q 363 473 371 465 q 345 481 355 481 q 335 479 340 481 q 328 473 331 477 l 245 407 l 245 7 q 230 -40 245 -22 q 187 -58 214 -58 q 145 -40 162 -58 q 129 7 129 -22 l 129 533 q 145 580 129 563 q 187 597 161 597 q 221 587 208 597 q 243 554 235 576 l 262 570 q 301 591 281 584 q 345 597 320 597 q 406 584 378 597 q 460 543 434 571 l 473 554 q 526 588 505 579 q 571 597 547 597 q 671 559 631 597 q 714 464 711 522 z "},"n":{"ha":859,"x_min":142,"x_max":717,"o":"m 258 532 l 258 496 l 326 542 l 330 545 q 471 597 405 597 l 524 597 q 656 544 612 597 q 704 380 701 490 l 717 7 l 717 4 q 700 -41 717 -23 q 659 -58 684 -58 q 617 -41 633 -58 q 600 7 602 -24 l 586 384 q 566 456 584 433 q 513 479 548 479 l 475 479 q 397 450 444 479 l 393 447 l 258 358 l 258 7 q 242 -40 258 -22 q 200 -58 226 -58 q 158 -40 174 -58 q 142 7 142 -22 l 142 532 q 158 579 142 562 q 200 597 174 597 q 242 579 225 597 q 258 532 258 561 z "},"o":{"ha":859,"x_min":142,"x_max":717,"o":"m 366 482 q 348 478 357 482 q 329 468 338 475 l 279 427 q 264 407 270 419 q 258 383 258 395 l 258 155 q 264 132 258 143 q 279 113 270 120 l 330 71 q 347 61 338 64 q 366 58 356 58 l 493 58 q 512 62 503 58 q 530 71 522 65 l 579 113 q 594 132 588 119 q 600 155 600 144 l 600 383 q 594 407 600 395 q 580 426 589 419 l 529 468 q 511 478 520 475 q 493 482 502 482 l 366 482 m 364 597 l 493 597 q 551 587 522 597 q 604 557 580 576 l 654 517 q 700 457 683 493 q 717 383 717 421 l 717 155 q 700 83 717 118 q 654 24 684 47 l 604 -18 q 551 -48 580 -37 q 493 -58 522 -58 l 364 -58 q 307 -48 335 -58 q 254 -18 279 -38 l 204 24 q 158 83 175 47 q 142 155 142 118 l 142 383 q 158 457 142 421 q 204 517 175 493 l 254 557 q 307 587 279 577 q 364 597 335 597 z "},"p":{"ha":859,"x_min":142,"x_max":717,"o":"m 416 504 q 396 500 406 504 q 378 488 386 496 l 273 385 q 262 367 266 377 q 258 345 258 357 l 258 196 q 262 173 258 183 q 273 155 266 163 l 378 53 q 396 40 386 45 q 416 35 407 35 l 443 35 q 465 39 453 35 q 485 52 476 44 l 582 134 q 594 151 589 139 q 599 174 599 163 l 599 367 q 594 390 599 378 q 582 408 589 403 l 485 490 q 466 500 477 497 q 443 504 456 504 l 416 504 m 258 557 l 258 533 l 286 561 q 349 607 317 592 q 416 623 382 623 l 447 623 q 504 611 475 623 q 558 579 534 600 l 654 498 q 700 439 683 475 q 717 367 717 404 l 717 174 q 700 101 717 136 q 654 41 683 65 l 555 -40 q 504 -71 533 -60 q 444 -82 474 -82 l 418 -82 q 350 -67 382 -82 q 286 -21 317 -52 l 258 7 l 258 -237 q 242 -284 258 -267 q 200 -302 226 -302 q 158 -284 174 -302 q 142 -237 142 -266 l 142 557 q 158 605 142 587 q 200 623 174 623 q 242 604 225 623 q 258 557 258 585 z "},"q":{"ha":859,"x_min":140,"x_max":717,"o":"m 354 481 q 336 477 345 481 q 314 464 327 474 l 275 433 q 263 416 268 427 q 258 393 258 405 l 258 144 q 263 122 258 133 q 275 106 268 111 l 313 75 q 317 73 315 74 q 354 58 336 58 l 444 58 q 465 62 456 58 q 485 75 475 66 l 583 154 q 594 171 590 159 q 599 195 599 182 l 599 343 q 594 367 599 355 q 583 383 590 378 l 485 464 q 464 476 475 472 q 444 481 454 481 l 354 481 m 354 597 l 444 597 q 504 587 475 597 q 555 557 534 576 l 599 519 l 599 533 q 615 580 599 563 q 657 597 631 597 q 700 579 683 597 q 717 533 717 562 l 717 -237 q 700 -284 717 -267 q 657 -302 683 -302 q 615 -284 631 -302 q 599 -237 599 -266 l 599 20 l 555 -18 q 504 -48 534 -37 q 444 -58 475 -58 l 354 -58 q 296 -48 323 -58 q 243 -18 269 -39 l 203 12 q 158 70 176 33 q 140 140 140 106 l 140 395 q 158 468 140 431 q 203 526 175 505 l 243 557 q 296 587 269 577 q 354 597 323 597 z "},"r":{"ha":859,"x_min":142,"x_max":717,"o":"m 258 533 l 258 472 l 355 557 q 407 587 377 576 q 467 597 437 597 l 543 597 q 666 547 614 597 q 717 425 717 496 l 717 399 q 701 352 717 370 q 659 334 684 334 q 616 352 633 334 q 600 399 600 370 l 600 425 q 583 465 600 448 q 543 482 566 482 l 467 482 q 445 477 457 482 q 425 465 432 472 l 258 318 l 258 7 q 242 -40 258 -22 q 200 -58 226 -58 q 158 -40 174 -58 q 142 7 142 -22 l 142 533 q 158 580 142 563 q 200 597 174 597 q 242 579 226 597 q 258 533 258 562 z "},"s":{"ha":859,"x_min":142,"x_max":715,"o":"m 304 597 l 551 597 q 655 562 608 597 q 703 490 703 527 q 685 449 703 466 q 644 432 668 432 q 598 456 623 432 q 550 481 573 481 l 304 481 q 280 471 290 481 q 271 444 271 461 q 277 429 271 437 q 292 416 283 420 l 607 282 q 686 216 657 260 q 715 118 715 172 q 663 -6 715 45 q 539 -58 611 -58 l 310 -58 q 195 -23 249 -58 q 142 49 142 13 q 158 90 142 72 q 199 107 175 107 q 250 83 218 107 q 310 58 283 58 l 539 58 q 581 76 563 58 q 599 118 599 94 q 589 152 599 136 q 561 174 578 167 l 248 310 q 179 366 204 328 q 154 447 154 403 q 198 553 154 509 q 304 597 242 597 z "},"t":{"ha":859,"x_min":142,"x_max":715,"o":"m 374 729 l 374 597 l 595 597 q 642 581 624 597 q 660 539 660 565 q 642 497 660 513 q 595 481 623 481 l 374 481 l 374 114 q 390 74 374 90 q 429 58 406 58 l 545 58 q 577 69 563 58 q 599 99 591 79 q 602 109 600 101 q 659 157 618 157 q 699 140 682 157 q 715 102 715 123 q 664 -8 715 41 q 543 -58 612 -58 l 429 -58 q 307 -7 357 -58 q 256 115 256 44 l 256 481 l 207 481 q 159 497 177 481 q 142 539 142 513 q 160 581 142 564 q 207 597 178 597 l 256 597 l 256 729 q 272 776 256 759 q 314 793 288 793 q 357 775 340 793 q 374 729 374 758 z "},"u":{"ha":859,"x_min":142,"x_max":717,"o":"m 258 532 l 272 155 q 293 81 275 104 q 346 58 311 58 l 383 58 q 458 87 413 58 q 465 92 463 90 l 600 179 l 600 532 q 616 579 600 562 q 659 597 632 597 q 700 579 684 597 q 717 532 717 561 l 717 7 q 701 -40 717 -22 q 659 -58 684 -58 q 616 -40 633 -58 q 600 7 600 -22 l 600 43 l 532 -4 l 531 -5 q 387 -58 455 -58 l 335 -58 q 202 -5 246 -58 q 154 160 157 49 l 142 532 l 142 534 q 158 579 142 562 q 200 597 175 597 q 241 580 226 597 q 258 532 257 562 z "},"v":{"ha":859,"x_min":142,"x_max":717,"o":"m 258 533 l 258 457 l 429 66 l 600 457 l 600 533 q 616 579 600 562 q 659 597 633 597 q 701 580 684 597 q 717 533 717 562 l 717 447 q 715 430 717 438 q 709 413 713 422 l 525 -8 q 498 -48 512 -37 q 465 -58 485 -58 l 393 -58 q 360 -48 373 -58 q 334 -8 347 -38 l 150 412 q 143 430 145 422 q 142 447 142 437 l 142 533 q 158 580 142 563 q 200 597 174 597 q 242 579 226 597 q 258 533 258 562 z "},"w":{"ha":859,"x_min":131,"x_max":728,"o":"m 248 534 l 257 203 l 296 78 l 371 211 l 371 338 q 387 384 371 366 q 429 401 404 401 q 471 383 454 401 q 488 338 488 365 l 488 211 l 561 78 l 600 203 l 611 534 q 628 581 612 564 q 671 597 644 597 q 711 579 695 597 q 728 534 728 562 l 728 532 l 717 187 l 657 -11 q 633 -47 650 -36 q 585 -58 616 -58 l 539 -58 q 510 -50 523 -58 q 488 -24 498 -41 l 429 75 l 371 -24 q 348 -50 361 -41 q 318 -58 334 -58 l 273 -58 q 225 -47 243 -58 q 201 -11 208 -36 l 142 187 l 131 532 l 131 534 q 146 580 131 562 q 186 597 162 597 q 230 580 213 597 q 248 534 246 563 z "},"x":{"ha":859,"x_min":142,"x_max":715,"o":"m 261 572 l 431 368 l 596 572 q 619 591 606 585 q 646 597 632 597 q 686 581 669 597 q 703 541 703 564 q 699 518 703 529 q 686 497 694 508 l 505 278 l 699 41 q 711 22 707 32 q 715 0 715 12 q 699 -40 715 -24 q 659 -57 682 -57 q 631 -50 645 -57 q 608 -32 618 -43 l 429 186 l 249 -32 q 225 -51 238 -45 q 199 -57 213 -57 q 158 -41 174 -57 q 142 -1 142 -25 q 146 21 142 10 q 158 41 151 33 l 354 277 l 171 497 q 158 519 162 508 q 154 545 154 530 q 171 581 154 564 q 210 597 189 597 q 238 591 224 597 q 261 572 251 585 z "},"y":{"ha":859,"x_min":142,"x_max":717,"o":"m 258 533 l 258 457 l 411 109 l 447 109 l 600 457 l 600 533 q 616 579 600 562 q 659 597 633 597 q 701 580 684 597 q 717 533 717 562 l 717 447 q 715 432 717 439 q 708 412 713 425 l 410 -274 q 387 -294 404 -286 q 351 -302 371 -302 l 205 -302 q 159 -287 176 -302 q 142 -244 142 -271 q 159 -202 142 -219 q 205 -186 177 -186 l 321 -186 l 397 -9 l 378 -9 q 342 -2 357 -9 q 321 20 326 6 l 150 412 q 143 430 145 422 q 142 447 142 437 l 142 533 q 158 580 142 563 q 200 597 174 597 q 242 579 226 597 q 258 533 258 562 z "},"z":{"ha":859,"x_min":142,"x_max":717,"o":"m 205 -58 q 159 -42 176 -58 q 142 0 142 -26 l 142 37 q 147 73 142 60 q 164 97 152 86 l 201 134 l 574 490 l 235 490 q 188 507 205 490 q 170 549 170 523 q 188 591 170 574 q 235 607 206 607 l 652 607 q 699 591 681 607 q 717 549 717 575 l 717 503 q 712 467 717 480 q 694 443 707 454 l 656 408 l 290 58 l 652 58 q 699 42 681 58 q 717 0 717 26 q 699 -42 717 -26 q 652 -58 680 -58 l 205 -58 z "},"{":{"ha":859,"x_min":142,"x_max":717,"o":"m 488 509 q 477 449 488 478 q 443 392 466 420 q 477 333 466 361 q 488 273 488 304 l 488 58 l 652 58 q 699 42 680 58 q 717 0 717 26 q 699 -42 717 -26 q 652 -58 681 -58 l 488 -58 q 406 -24 440 -58 q 371 58 371 11 l 371 275 q 354 316 371 298 q 313 334 337 334 l 207 334 q 159 350 177 334 q 142 392 142 366 q 160 434 142 417 q 207 450 178 450 l 313 450 q 354 468 336 450 q 371 509 371 485 l 371 725 q 406 807 371 772 q 488 842 440 842 l 652 842 q 699 825 681 842 q 717 783 717 809 q 699 742 717 758 q 652 725 680 725 l 488 725 l 488 509 z "},"|":{"ha":859,"x_min":371,"x_max":488,"o":"m 371 -175 l 371 1222 l 488 1222 l 488 -175 l 371 -175 z "},"}":{"ha":859,"x_min":142,"x_max":717,"o":"m 207 725 q 160 742 178 725 q 142 783 142 758 q 160 825 142 809 q 207 842 178 842 l 371 842 q 453 807 418 842 q 488 725 488 772 l 488 509 q 505 468 488 485 q 546 450 522 450 l 652 450 q 699 434 680 450 q 717 392 717 417 q 699 350 717 366 q 652 334 681 334 l 546 334 q 505 316 522 334 q 488 275 488 298 l 488 58 q 453 -24 488 11 q 371 -58 418 -58 l 207 -58 q 160 -42 178 -58 q 142 0 142 -26 q 160 42 142 26 q 207 58 178 58 l 371 58 l 371 273 q 382 334 371 304 q 415 392 393 363 q 382 449 393 420 q 371 509 371 478 l 371 725 l 207 725 z "},"Ä":{"ha":859,"x_min":142,"x_max":717,"o":"m 717 777 l 717 692 q 701 645 717 663 q 659 627 684 627 q 616 645 633 627 q 600 692 600 663 l 600 777 q 616 824 600 806 q 659 842 632 842 q 700 823 684 842 q 717 777 717 805 m 258 777 l 258 692 q 242 645 258 663 q 200 627 226 627 q 158 645 174 627 q 142 692 142 663 l 142 777 q 158 824 142 806 q 200 842 174 842 q 242 823 225 842 q 258 777 258 805 m 429 429 l 343 205 l 517 205 l 429 429 m 603 -14 l 561 87 l 297 87 l 257 -14 q 234 -47 249 -36 q 200 -58 220 -58 q 158 -41 175 -58 q 142 3 142 -24 q 143 14 142 7 q 149 28 145 20 l 367 596 q 392 632 375 619 q 429 646 408 646 q 466 633 450 646 q 490 596 481 621 l 711 28 q 715 13 714 19 q 717 3 717 7 q 701 -41 717 -24 q 660 -58 684 -58 q 626 -47 640 -58 q 603 -14 611 -36 z "},"Å":{"ha":859,"x_min":143,"x_max":715,"o":"m 418 529 l 335 254 l 522 254 l 443 529 l 418 529 m 317 725 l 317 646 l 543 646 l 543 725 l 317 725 m 315 842 l 543 842 q 626 808 591 842 q 660 725 660 774 l 660 646 q 633 572 660 604 q 564 532 606 540 l 711 22 q 714 9 713 16 q 715 -1 715 3 q 699 -42 715 -25 q 659 -58 682 -58 q 622 -45 638 -58 q 600 -10 606 -32 l 557 138 l 302 138 l 258 -9 q 236 -46 250 -35 q 199 -58 221 -58 q 160 -42 176 -58 q 143 -3 143 -25 q 144 13 143 7 q 146 22 144 18 l 294 530 q 224 573 250 542 q 199 646 199 604 l 199 725 q 233 807 199 773 q 315 842 267 842 z "},"Ñ":{"ha":859,"x_min":142,"x_max":717,"o":"m 258 340 l 258 7 q 242 -40 258 -22 q 200 -58 226 -58 q 158 -40 174 -58 q 142 7 142 -22 l 142 484 q 158 530 142 513 q 200 547 174 547 q 248 522 225 547 q 252 518 250 519 l 600 149 l 600 484 q 616 530 600 513 q 659 547 632 547 q 701 530 684 547 q 717 484 717 512 l 717 7 q 701 -40 717 -22 q 659 -58 684 -58 q 613 -36 635 -58 q 607 -29 609 -31 l 258 340 m 717 777 l 717 741 q 700 692 717 709 q 653 675 683 675 q 640 675 646 675 q 629 676 635 675 l 258 720 q 236 688 251 699 q 200 676 220 676 q 158 694 174 676 q 142 741 142 712 l 142 777 q 158 824 142 806 q 200 842 174 842 q 229 839 210 842 l 600 799 q 622 830 606 819 q 659 842 637 842 q 700 823 684 842 q 717 777 717 805 z "},"Ö":{"ha":859,"x_min":142,"x_max":717,"o":"m 717 777 l 717 692 q 701 645 717 663 q 659 627 684 627 q 616 645 633 627 q 600 692 600 663 l 600 777 q 616 824 600 806 q 659 842 632 842 q 700 823 684 842 q 717 777 717 805 m 258 777 l 258 692 q 242 645 258 663 q 200 627 226 627 q 158 645 174 627 q 142 692 142 663 l 142 777 q 158 824 142 806 q 200 842 174 842 q 242 823 225 842 q 258 777 258 805 m 593 543 l 661 444 q 705 365 693 398 q 717 294 717 332 q 705 224 717 258 q 661 143 693 190 l 593 45 q 517 -33 557 -8 q 429 -58 477 -58 q 341 -33 381 -58 q 265 45 301 -8 l 199 143 q 153 226 165 193 q 142 294 142 258 q 153 362 142 330 q 199 444 165 395 l 265 543 q 341 621 301 595 q 429 646 381 646 q 517 621 477 646 q 593 543 557 595 m 482 498 q 458 520 473 511 q 429 529 443 529 q 401 520 415 529 q 378 498 387 512 l 286 363 q 279 353 284 359 q 258 293 258 322 q 279 235 258 264 q 286 225 284 229 l 378 89 q 401 66 387 75 q 429 57 416 57 q 458 66 443 57 q 482 89 473 75 l 571 225 q 576 233 572 227 q 600 293 600 264 q 578 353 600 322 q 572 362 574 359 l 482 498 z "},"Ü":{"ha":859,"x_min":142,"x_max":717,"o":"m 599 777 l 599 692 q 583 644 599 661 q 541 627 568 627 q 500 645 517 627 q 482 691 484 663 l 482 777 q 499 824 482 806 q 541 842 515 842 q 583 825 566 842 q 599 782 599 809 l 599 777 m 376 776 l 376 692 q 359 645 376 663 q 318 627 342 627 q 276 643 292 627 q 260 686 260 659 l 260 692 l 260 777 q 275 824 260 807 q 318 842 291 842 q 358 823 341 842 q 376 776 374 805 m 258 581 l 258 117 q 276 75 258 92 q 317 58 293 58 l 541 58 q 582 76 564 58 q 600 117 600 94 l 600 581 q 616 628 600 610 q 659 646 632 646 q 700 627 684 646 q 717 581 717 609 l 717 117 q 665 -7 717 45 q 542 -58 614 -58 l 318 -58 q 193 -7 245 -58 q 142 117 142 44 l 142 581 q 158 628 142 610 q 200 646 174 646 q 242 627 225 646 q 258 581 258 609 z "},"à":{"ha":859,"x_min":142,"x_max":717,"o":"m 142 777 q 158 824 142 806 q 200 842 174 842 q 242 823 225 842 q 258 777 258 805 l 258 450 l 600 450 l 600 777 q 616 824 600 806 q 659 842 632 842 q 700 823 684 842 q 717 777 717 805 l 717 334 l 488 334 l 488 7 q 471 -40 488 -22 q 429 -58 455 -58 q 387 -40 404 -58 q 371 7 371 -22 l 371 334 l 142 334 l 142 777 z "},"£":{"ha":859,"x_min":142,"x_max":717,"o":"m 632 842 l 652 842 q 699 825 681 842 q 717 783 717 809 q 699 742 717 758 q 652 725 680 725 l 632 725 q 596 712 611 725 q 574 673 581 699 l 507 450 l 652 450 q 699 434 681 450 q 717 392 717 418 q 699 350 717 366 q 652 334 680 334 l 473 334 l 395 58 l 652 58 q 699 42 681 58 q 717 0 717 26 q 699 -42 717 -26 q 652 -58 680 -58 l 207 -58 q 160 -42 178 -58 q 142 0 142 -26 q 160 42 142 26 q 207 58 178 58 l 271 58 l 351 334 l 207 334 q 159 350 177 334 q 142 392 142 366 q 160 434 142 417 q 207 450 178 450 l 386 450 l 456 693 q 522 803 475 764 q 632 842 568 842 z "},"Æ":{"ha":859,"x_min":142,"x_max":717,"o":"m 428 450 l 357 254 l 428 254 l 428 450 m 505 842 l 652 842 q 699 825 681 842 q 717 783 717 809 q 699 742 717 758 q 652 725 680 725 l 545 725 l 545 450 l 652 450 q 699 434 681 450 q 717 392 717 418 q 699 350 717 366 q 652 334 680 334 l 545 334 l 545 58 l 652 58 q 699 42 681 58 q 717 0 717 26 q 699 -42 717 -26 q 652 -58 680 -58 l 486 -58 q 444 -40 460 -58 q 428 7 428 -22 l 428 138 l 315 138 l 257 -14 q 234 -47 248 -37 q 200 -58 220 -58 q 159 -41 176 -58 q 142 0 142 -24 q 143 13 142 5 q 147 26 145 21 l 429 799 q 453 832 438 823 q 505 842 467 842 z "},"Ø":{"ha":859,"x_min":142,"x_max":717,"o":"m 561 504 l 359 157 l 399 81 q 411 63 404 68 q 429 58 418 58 q 448 64 439 58 q 461 81 456 70 l 586 326 q 596 356 592 338 q 600 392 600 374 q 596 427 600 409 q 586 457 592 446 l 561 504 m 460 703 q 447 720 454 715 q 429 725 440 725 q 411 719 420 725 q 397 703 402 713 l 272 456 q 262 427 266 444 q 258 392 258 409 q 262 355 258 374 q 272 327 267 337 l 297 279 l 498 627 l 460 703 m 705 750 l 631 624 l 692 505 q 710 452 703 482 q 717 392 717 422 q 710 330 717 360 q 692 278 703 300 l 571 40 q 510 -36 543 -14 q 429 -58 477 -58 q 347 -35 380 -58 q 288 39 313 -12 l 254 -24 q 231 -49 245 -40 q 200 -58 216 -58 q 158 -42 175 -58 q 142 0 142 -25 q 144 17 142 8 q 153 35 147 26 l 227 160 l 167 278 q 148 331 155 302 q 142 392 142 361 q 148 453 142 423 q 167 505 155 483 l 288 743 q 348 819 315 797 q 429 842 380 842 q 512 819 479 842 q 570 746 546 795 l 604 808 q 627 833 613 825 q 659 842 641 842 q 700 825 682 842 q 717 783 717 808 q 714 767 717 776 q 705 750 711 758 z "},"¥":{"ha":859,"x_min":142,"x_max":717,"o":"m 254 807 l 429 507 l 604 807 q 628 832 613 823 q 659 842 642 842 q 700 825 683 842 q 717 783 717 808 q 714 767 717 776 q 705 748 711 759 l 488 375 l 488 351 l 653 351 q 699 335 681 351 q 717 293 717 319 q 700 251 717 267 q 653 235 682 235 l 488 235 l 488 7 q 471 -40 488 -22 q 429 -58 455 -58 q 387 -40 404 -58 q 371 7 371 -22 l 371 235 l 207 235 q 159 251 177 235 q 142 293 142 267 q 160 335 142 319 q 207 351 178 351 l 371 351 l 371 375 l 153 749 q 144 767 147 759 q 142 783 142 776 q 158 825 142 808 q 200 842 175 842 q 230 832 216 842 q 254 807 245 823 z "},"¡":{"ha":859,"x_min":142,"x_max":717,"o":"m 717 496 q 701 449 717 467 q 659 432 684 432 q 616 450 633 432 q 600 496 600 467 l 600 725 l 488 725 l 488 -58 l 142 -58 l 142 288 q 158 334 142 317 q 200 351 174 351 q 242 334 226 351 q 258 288 258 316 l 258 58 l 371 58 l 371 842 l 717 842 l 717 496 z "}," ":{"ha":859,"x_min":0,"x_max":0,"o":""},"À":{"ha":859,"x_min":142,"x_max":717,"o":"m 257 7 l 257 288 q 262 317 257 306 q 286 345 267 328 l 600 612 l 600 661 l 545 707 l 243 450 q 220 436 231 440 q 196 432 209 432 q 158 449 175 432 q 142 488 142 465 q 148 515 142 502 q 167 538 155 528 l 501 823 q 522 838 513 834 q 543 842 532 842 q 569 836 556 842 q 608 807 581 829 l 668 755 l 669 755 q 717 679 717 713 l 717 595 q 712 564 717 576 q 688 536 707 553 l 374 268 l 374 7 q 357 -40 374 -22 q 315 -58 341 -58 q 273 -40 290 -58 q 257 7 257 -22 z "},"’":{"ha":859,"x_min":314,"x_max":543,"o":"m 372 842 l 472 842 q 525 827 507 842 q 543 783 543 812 q 543 773 543 779 q 541 762 542 768 l 432 383 q 409 347 425 359 q 372 334 393 334 q 330 352 347 334 q 314 399 314 370 l 314 777 q 330 824 314 806 q 372 842 346 842 z "},"¤":{"ha":859,"x_min":65,"x_max":770,"o":"m 131 216 q 82 230 99 216 q 65 268 65 243 q 83 306 65 292 q 131 319 100 319 l 204 319 q 197 351 199 334 q 195 390 195 369 q 197 430 195 412 q 204 464 199 448 l 139 464 q 91 477 107 464 q 74 515 74 490 q 91 553 74 539 q 139 567 109 567 l 253 567 l 336 732 q 404 815 365 789 q 498 842 444 842 l 704 842 q 751 825 733 842 q 770 783 770 809 q 751 742 770 758 q 704 725 733 725 l 498 725 q 466 715 481 725 q 443 689 452 706 l 383 567 l 614 567 q 661 553 644 567 q 677 515 677 540 q 661 477 677 490 q 614 464 645 464 l 332 464 l 323 447 q 315 421 318 435 q 313 392 313 408 q 315 362 313 376 q 323 336 318 349 l 332 319 l 541 319 q 587 306 570 319 q 604 268 604 292 q 588 230 604 243 q 541 216 572 216 l 383 216 l 443 96 q 467 68 452 79 q 498 58 481 58 l 704 58 q 751 42 733 58 q 770 0 770 26 q 751 -42 770 -26 q 704 -58 733 -58 l 498 -58 q 404 -32 444 -58 q 336 52 365 -5 l 253 216 l 131 216 z "},"‹":{"ha":859,"x_min":157,"x_max":690,"o":"m 597 52 l 191 290 q 165 314 174 300 q 157 343 157 328 l 157 439 q 165 470 157 456 q 191 493 174 484 l 597 732 q 616 740 607 737 q 632 743 625 743 q 673 727 656 743 q 690 686 690 711 q 682 655 690 669 q 657 632 673 641 l 245 393 l 657 151 q 682 127 673 141 q 690 97 690 113 q 674 56 690 73 q 632 40 657 40 q 616 43 625 40 q 597 52 608 45 z "},"›":{"ha":859,"x_min":168,"x_max":701,"o":"m 261 732 l 668 493 q 692 470 684 484 q 701 439 701 456 l 701 343 q 692 313 701 327 q 668 290 684 299 l 261 52 q 242 43 250 45 q 227 40 234 40 q 185 56 201 40 q 168 97 168 73 q 177 128 168 114 q 201 151 186 142 l 612 390 l 201 632 q 176 656 184 642 q 168 686 168 669 q 185 727 168 711 q 227 743 201 743 q 242 740 233 743 q 261 732 252 737 z "},"Â":{"ha":2829,"x_min":161,"x_max":2669,"o":"m 161 244 l 161 539 l 2669 539 l 2669 244 l 161 244 z "},"Ó":{"ha":859,"x_min":157,"x_max":703,"o":"m 157 -45 l 157 828 l 703 828 l 703 -45 l 157 -45 z "},"Ð":{"ha":859,"x_min":142,"x_max":717,"o":"m 652 450 q 699 434 681 450 q 717 392 717 418 q 699 350 717 366 q 652 334 680 334 l 207 334 q 159 350 177 334 q 142 392 142 366 q 160 434 142 417 q 207 450 178 450 l 652 450 z "},"Þ":{"ha":859,"x_min":142,"x_max":717,"o":"m 600 777 q 616 824 600 806 q 659 842 632 842 q 700 823 684 842 q 717 777 717 805 l 717 5 q 701 -41 717 -24 q 659 -58 684 -58 q 616 -41 633 -58 q 600 5 600 -23 l 600 334 l 258 334 l 258 5 q 242 -41 258 -24 q 200 -58 226 -58 q 158 -41 174 -58 q 142 5 142 -23 l 142 450 l 600 450 l 600 777 z "},"²":{"ha":859,"x_min":257,"x_max":602,"o":"m 602 288 l 602 7 q 585 -40 602 -22 q 543 -58 569 -58 l 486 -58 q 444 -40 460 -58 q 428 7 428 -22 l 428 186 l 321 186 q 274 202 291 186 q 257 244 257 218 l 257 288 q 274 335 257 318 q 321 351 290 351 l 543 351 q 585 334 569 351 q 602 288 602 316 z "},"³":{"ha":859,"x_min":285,"x_max":574,"o":"m 515 -58 l 343 -58 q 301 -40 317 -58 q 285 7 285 -22 l 285 165 q 301 213 285 195 q 343 231 317 231 l 515 231 q 557 212 541 231 q 574 165 574 194 l 574 7 q 557 -40 574 -22 q 515 -58 541 -58 z "},"":{"ha":859,"x_min":65,"x_max":770,"o":"m 131 216 q 82 230 99 216 q 65 268 65 243 q 83 306 65 292 q 131 319 100 319 l 204 319 q 197 351 199 334 q 195 390 195 369 q 197 430 195 412 q 204 464 199 448 l 139 464 q 91 477 107 464 q 74 515 74 490 q 91 553 74 539 q 139 567 109 567 l 253 567 l 336 732 q 404 815 365 789 q 498 842 444 842 l 704 842 q 751 825 733 842 q 770 783 770 809 q 751 742 770 758 q 704 725 733 725 l 498 725 q 466 715 481 725 q 443 689 452 706 l 383 567 l 614 567 q 661 553 644 567 q 677 515 677 540 q 661 477 677 490 q 614 464 645 464 l 332 464 l 323 447 q 315 421 318 435 q 313 392 313 408 q 315 362 313 376 q 323 336 318 349 l 332 319 l 541 319 q 587 306 570 319 q 604 268 604 292 q 588 230 604 243 q 541 216 572 216 l 383 216 l 443 96 q 467 68 452 79 q 498 58 481 58 l 704 58 q 751 42 733 58 q 770 0 770 26 q 751 -42 770 -26 q 704 -58 733 -58 l 498 -58 q 404 -32 444 -58 q 336 52 365 -5 l 253 216 l 131 216 z "}}}
